<svg width="138" height="25" viewBox="0 0 138 25" fill="none" xmlns="http://www.w3.org/2000/svg">
<path d="M3 10L16 18L3 25.5V10ZM0 4V32L22 18" fill="url(#paint0_linear_343_1072)"/>
<path d="M7.31818 4.72222L17.3636 10.8182L7.31818 16.5278V4.72222ZM5 0V21.6364L22 10.8182" fill="white"/>
<path d="M58.4758 5.24C59.9638 5.24 61.2758 5.488 62.4118 5.984C63.5638 6.48 64.4518 7.176 65.0758 8.072C65.7158 8.952 66.0358 9.976 66.0358 11.144V11.24C66.0358 13.176 65.4118 14.664 64.1638 15.704C62.9318 16.728 61.1798 17.24 58.9078 17.24H50.4838V23H45.4918V5.24H58.4758ZM57.7078 13.568C58.5878 13.568 59.2598 13.536 59.7238 13.472C60.2038 13.392 60.6038 13.192 60.9238 12.872C61.2598 12.536 61.4278 12 61.4278 11.264C61.4278 10.512 61.2598 9.968 60.9238 9.632C60.6038 9.28 60.1958 9.064 59.6998 8.984C59.2198 8.904 58.5558 8.864 57.7078 8.864H56.8198C56.4518 8.864 55.8118 8.872 54.8998 8.888C54.0038 8.888 52.5238 8.888 50.4598 8.888V13.568H57.6838H57.7078ZM72.7958 5.24V19.064H84.5078V23H67.8278V5.24H72.7958ZM109.525 23H104.413L102.565 19.592H91.9332L90.0852 23H84.9732L94.6212 5.24H99.9012L109.525 23ZM97.2612 9.776L93.9012 15.944H100.597L97.2612 9.776ZM120.681 5.24H126.081L117.561 15.536V23H112.161V15.56L103.641 5.24H109.041L114.753 12.2L120.681 5.24Z" fill="white"/>
<path d="M147.037 14.144C147.037 15.824 146.605 17.336 145.741 18.68C144.893 20.024 143.677 21.08 142.093 21.848C140.509 22.616 138.677 23 136.597 23V23.024H131.485V23H127.429V5.24H136.573C138.669 5.24 140.509 5.624 142.093 6.392C143.677 7.16 144.893 8.216 145.741 9.56C146.605 10.904 147.037 12.432 147.037 14.144ZM136.813 18.848C138.349 18.848 139.613 18.448 140.605 17.648C141.613 16.848 142.117 15.68 142.117 14.144C142.117 13.28 141.877 12.488 141.397 11.768C140.917 11.032 140.269 10.456 139.453 10.04C138.653 9.608 137.773 9.392 136.813 9.392H132.397V18.848H136.813ZM165.412 15.752H153.796V19.304L167.428 19.208V23H148.828V5.24H167.428L167.452 9.008H153.796V12.032H165.412V15.752ZM184.118 22.976L179.198 17.24H174.182V22.976H169.382V5.216H182.366C183.854 5.216 185.166 5.464 186.302 5.96C187.454 6.456 188.342 7.152 188.966 8.048C189.606 8.928 189.926 9.952 189.926 11.12V11.216C189.926 12.736 189.478 13.992 188.582 14.984C187.702 15.976 186.478 16.64 184.91 16.976L190.07 22.976H184.118ZM185.102 11.264C185.102 10.496 184.95 9.936 184.646 9.584C184.342 9.232 183.95 9.016 183.47 8.936C182.99 8.856 182.31 8.816 181.43 8.816C181.046 8.816 180.718 8.824 180.446 8.84C179.134 8.872 177.046 8.888 174.182 8.888V13.568H181.406H181.43C182.31 13.568 182.99 13.536 183.47 13.472C183.95 13.392 184.342 13.184 184.646 12.848C184.95 12.512 185.102 11.984 185.102 11.264Z" fill="url(#paint1_linear_343_1072)"/>
<defs>
<linearGradient id="paint0_linear_343_1072" x1="11" y1="4" x2="11" y2="32" gradientUnits="userSpaceOnUse">
<stop offset="0.4" stop-color="#694CD2"/>
<stop offset="1" stop-color="#00A1B9"/>
</linearGradient>
<linearGradient id="paint1_linear_343_1072" x1="107.184" y1="17" x2="191" y2="17" gradientUnits="userSpaceOnUse">
<stop offset="0.29" stop-color="#694CD2"/>
<stop offset="0.3801" stop-color="#6450D1"/>
<stop offset="1" stop-color="#00A1B9"/>
</linearGradient>
</defs>
</svg>

